<svg width="20" height="20" viewBox="0 0 18 19" fill="none" xmlns="http://www.w3.org/2000/svg">
<path fill-rule="evenodd" clip-rule="evenodd" d="M0.25875 1.9375C0.0955184 2.07899 0.0012188 2.28399 0 2.5V18.25C0 18.6642 0.335786 19 0.75 19C1.16421 19 1.5 18.6642 1.5 18.25V14.1034C4.01156 12.1197 6.17531 13.1894 8.66719 14.4231C10.2047 15.1834 11.8603 16.0028 13.6359 16.0028C14.9419 16.0028 16.3116 15.5575 17.7441 14.3153C17.9073 14.1738 18.0016 13.9688 18.0028 13.7528V2.5C18.0021 2.20599 17.8297 1.93951 17.5618 1.81838C17.2939 1.69725 16.9799 1.74382 16.7588 1.9375C14.1338 4.20906 11.91 3.10844 9.33281 1.8325C6.66281 0.50875 3.63562 -0.988437 0.25875 1.9375ZM16.5 13.3984C13.9884 15.3822 11.8247 14.3116 9.33281 13.0787C6.98906 11.9209 4.38188 10.6291 1.5 12.2913V2.85531C4.01156 0.871562 6.17531 1.94125 8.66719 3.17406C11.0109 4.33188 13.6191 5.62375 16.5 3.96156V13.3984Z" fill="#1F0A0A"/>
</svg>
