<svg width="20" height="20" viewBox="0 0 22 15" fill="none" xmlns="http://www.w3.org/2000/svg">
<path fill-rule="evenodd" clip-rule="evenodd" d="M21.5 11V13.25C21.5 14.0784 20.8284 14.75 20 14.75H9.86844C9.7274 14.7501 9.59822 14.6711 9.53411 14.5454C9.47001 14.4198 9.48182 14.2688 9.56469 14.1547L15.3378 6.21875C15.5865 5.88844 15.5298 5.42069 15.2094 5.15938C15.0491 5.03503 14.8453 4.98091 14.6445 5.00935C14.4436 5.03779 14.2629 5.14636 14.1434 5.31031L7.39344 14.5972C7.32165 14.6948 7.20711 14.7517 7.08594 14.75H2C1.17157 14.75 0.5 14.0784 0.5 13.25V11.1059C0.5 10.9381 0.5 10.7712 0.512187 10.6062C0.522187 10.4065 0.687187 10.2498 0.887187 10.25H3.5C3.70783 10.2505 3.90653 10.1647 4.0487 10.0131C4.19087 9.86147 4.26377 9.65768 4.25 9.45031C4.21558 9.04949 3.87694 8.7436 3.47469 8.75H1.2425C1.12657 8.74991 1.01719 8.69621 0.946231 8.60453C0.87527 8.51285 0.850704 8.3935 0.879688 8.28125C2.00469 4.17125 5.53531 1.05031 9.83469 0.5675C9.94092 0.556012 10.047 0.590388 10.1263 0.661997C10.2056 0.733607 10.2506 0.835649 10.25 0.9425V3.5C10.2495 3.70783 10.3353 3.90653 10.4869 4.0487C10.6385 4.19087 10.8423 4.26377 11.0497 4.25C11.4505 4.21558 11.7564 3.87694 11.75 3.47469V0.937812C11.7494 0.830961 11.7944 0.72892 11.8737 0.65731C11.953 0.585701 12.0591 0.551324 12.1653 0.562812C16.4608 1.04549 20.0234 4.10724 21.1466 8.28125C21.1756 8.39366 21.1509 8.51318 21.0797 8.6049C21.0086 8.69662 20.8989 8.7502 20.7828 8.75H18.5253C18.1238 8.74459 17.7862 9.05022 17.7519 9.45031C17.7381 9.65768 17.811 9.86147 17.9532 10.0131C18.0953 10.1647 18.294 10.2505 18.5019 10.25H21.1194C21.3215 10.2499 21.4873 10.4099 21.4944 10.6119C21.5 10.7403 21.5 10.8697 21.5 11Z" fill="#1F0A0A"/>
</svg>
