<svg width="20" height="20" viewBox="0 0 24 19" fill="none" xmlns="http://www.w3.org/2000/svg">
<path fill-rule="evenodd" clip-rule="evenodd" d="M2.25 7.75H4.5V13.75H3C2.58579 13.75 2.25 14.0858 2.25 14.5C2.25 14.9142 2.58579 15.25 3 15.25H21C21.4142 15.25 21.75 14.9142 21.75 14.5C21.75 14.0858 21.4142 13.75 21 13.75H19.5V7.75H21.75C22.0853 7.74966 22.3796 7.52681 22.4709 7.20417C22.5622 6.88154 22.4282 6.53751 22.1428 6.36156L12.3928 0.361562C12.1519 0.213434 11.8481 0.213434 11.6072 0.361562L1.85719 6.36156C1.57176 6.53751 1.4378 6.88154 1.52908 7.20417C1.62036 7.52681 1.9147 7.74966 2.25 7.75ZM6 7.75H9V13.75H6V7.75ZM13.5 7.75V13.75H10.5V7.75H13.5ZM18 13.75H15V7.75H18V13.75ZM12 1.88031L19.1006 6.25H4.89937L12 1.88031ZM23.25 17.5C23.25 17.9142 22.9142 18.25 22.5 18.25H1.5C1.08579 18.25 0.75 17.9142 0.75 17.5C0.75 17.0858 1.08579 16.75 1.5 16.75H22.5C22.9142 16.75 23.25 17.0858 23.25 17.5Z" fill="#1F0A0A"/>
</svg>
