<svg width="20" height="20" viewBox="0 0 19 18" fill="none" xmlns="http://www.w3.org/2000/svg">
<path fill-rule="evenodd" clip-rule="evenodd" d="M17.25 3.75H2.25C1.83579 3.75 1.5 3.41421 1.5 3C1.5 2.58579 1.83579 2.25 2.25 2.25H15C15.4142 2.25 15.75 1.91421 15.75 1.5C15.75 1.08579 15.4142 0.75 15 0.75H2.25C1.00736 0.75 0 1.75736 0 3V15C0 16.2426 1.00736 17.25 2.25 17.25H17.25C18.0784 17.25 18.75 16.5784 18.75 15.75V5.25C18.75 4.42157 18.0784 3.75 17.25 3.75ZM17.25 15.75H2.25C1.83579 15.75 1.5 15.4142 1.5 15V5.12156C1.74082 5.20693 1.9945 5.25037 2.25 5.25H17.25V15.75ZM12.75 10.125C12.75 9.50368 13.2537 9 13.875 9C14.4963 9 15 9.50368 15 10.125C15 10.7463 14.4963 11.25 13.875 11.25C13.2537 11.25 12.75 10.7463 12.75 10.125Z" fill="#1F0A0A"/>
</svg>
