<svg width="16" height="20" viewBox="0 0 16 20" fill="none" xmlns="http://www.w3.org/2000/svg">
<path d="M6.12012 0.625L5.87598 0.844727L5.31445 1.40625H0.1875V2.96875H0.96875V17.0312C0.96875 18.316 2.02771 19.375 3.3125 19.375H12.6875C13.9723 19.375 15.0312 18.316 15.0312 17.0312V2.96875H15.8125V1.40625H10.6855L10.124 0.844727L9.87988 0.625H6.12012ZM6.7793 2.1875H9.2207L9.78223 2.74902L10.0264 2.96875H13.4688V17.0312C13.4688 17.4646 13.1208 17.8125 12.6875 17.8125H3.3125C2.87915 17.8125 2.53125 17.4646 2.53125 17.0312V2.96875H5.97363L6.21777 2.74902L6.7793 2.1875ZM4.09375 6.09375V14.6875H5.65625V6.09375H4.09375ZM7.21875 6.09375V14.6875H8.78125V6.09375H7.21875ZM10.3438 6.09375V14.6875H11.9062V6.09375H10.3438Z" fill="#8596AC"/>
</svg>
