<svg width="18" height="18" viewBox="0 0 18 18" fill="none" xmlns="http://www.w3.org/2000/svg">
<path d="M13.6382 0.663487C13.2499 0.660933 12.8694 0.798853 12.5757 1.09257L11.9218 1.76685L16.2331 6.09858L16.8869 5.4243C17.4769 4.83431 17.482 3.87653 16.8869 3.27887L14.7211 1.11301C14.4223 0.814178 14.0264 0.666041 13.6382 0.663487ZM11.1862 2.3594L10.1646 3.34017L14.6598 7.83536L15.7019 6.87503L11.1862 2.3594ZM9.51075 4.05531L2.44104 11.0637C2.27757 11.148 2.16009 11.2962 2.11411 11.4724L0.602093 16.601C0.533133 16.8257 0.594431 17.0735 0.760447 17.2395C0.926462 17.4055 1.17421 17.4668 1.39897 17.3979L6.52757 15.8858C6.7651 15.8501 6.96177 15.6841 7.03839 15.4568L14.0059 8.55051L13.0456 7.59017L5.89416 14.762L3.01315 15.5998L2.40017 14.9868L3.27878 11.9832L10.3689 4.91349L9.51075 4.05531ZM11.0636 5.62863L3.89176 12.8209L4.93382 13.0457L5.07685 14.006L12.2692 6.83416L11.0636 5.62863Z" fill="#8596AC"/>
</svg>
