<svg width="22" height="16" viewBox="0 0 22 16" fill="none" xmlns="http://www.w3.org/2000/svg">
<path fill-rule="evenodd" clip-rule="evenodd" d="M20 0.5H2C1.17157 0.5 0.5 1.17157 0.5 2V14C0.5 14.8284 1.17157 15.5 2 15.5H20C20.8284 15.5 21.5 14.8284 21.5 14V2C21.5 1.17157 20.8284 0.5 20 0.5ZM20 2V4.25H2V2H20ZM20 14H2V5.75H20V14ZM18.5 11.75C18.5 12.1642 18.1642 12.5 17.75 12.5H14.75C14.3358 12.5 14 12.1642 14 11.75C14 11.3358 14.3358 11 14.75 11H17.75C18.1642 11 18.5 11.3358 18.5 11.75ZM12.5 11.75C12.5 12.1642 12.1642 12.5 11.75 12.5H10.25C9.83579 12.5 9.5 12.1642 9.5 11.75C9.5 11.3358 9.83579 11 10.25 11H11.75C12.1642 11 12.5 11.3358 12.5 11.75Z" fill="black"/>
</svg>
