<svg width="19" height="19" viewBox="0 0 19 19" fill="none" xmlns="http://www.w3.org/2000/svg">
<path fill-rule="evenodd" clip-rule="evenodd" d="M11.2753 1.55594C11.3267 1.36371 11.4524 1.19979 11.6247 1.10027C11.7971 1.00075 12.0019 0.973783 12.1941 1.02531C15.0251 1.76397 17.236 3.97487 17.9747 6.80594C18.0262 6.99814 17.9993 7.20294 17.8997 7.37525C17.8002 7.54757 17.6363 7.67327 17.4441 7.72469C17.3807 7.74133 17.3155 7.74983 17.25 7.75C16.9102 7.74999 16.6128 7.52149 16.5253 7.19312C15.9229 4.88198 14.118 3.07713 11.8069 2.47469C11.6145 2.42347 11.4503 2.29786 11.3506 2.12552C11.2509 1.95318 11.2238 1.74827 11.2753 1.55594ZM11.0569 5.47469C12.3497 5.81969 13.1803 6.65031 13.5253 7.94312C13.6128 8.27149 13.9102 8.49999 14.25 8.5C14.3155 8.49983 14.3807 8.49133 14.4441 8.47469C14.6363 8.42327 14.8002 8.29757 14.8997 8.12525C14.9993 7.95294 15.0262 7.74814 14.9747 7.55594C14.4947 5.75969 13.2403 4.50531 11.4441 4.02531C11.0438 3.91839 10.6327 4.15617 10.5258 4.55641C10.4189 4.95664 10.6566 5.36777 11.0569 5.47469ZM18.7388 14.4137C18.3929 17.0417 16.1506 19.0048 13.5 19C6.05625 19 0 12.9438 0 5.5C-0.00475144 2.84943 1.95833 0.607054 4.58625 0.26125C5.246 0.180692 5.88009 0.543904 6.14437 1.15375L8.12438 5.57406V5.58531C8.32448 6.047 8.27977 6.57826 8.00531 7C7.98844 7.02531 7.97062 7.04875 7.95187 7.07219L6 9.38594C6.70219 10.8128 8.19469 12.2922 9.64031 12.9963L11.9222 11.0547C11.9446 11.0359 11.9681 11.0183 11.9925 11.0022C12.414 10.7211 12.9489 10.6717 13.4147 10.8709L13.4269 10.8766L17.8434 12.8556C18.4544 13.119 18.8189 13.7533 18.7388 14.4137ZM17.25 14.2262C17.25 14.2262 17.2434 14.2262 17.2397 14.2262L12.8334 12.2528L10.5506 14.1944C10.5285 14.2131 10.5053 14.2307 10.4812 14.2469C10.0422 14.5398 9.4814 14.5804 9.00469 14.3538C7.24875 13.5053 5.49844 11.7681 4.64906 10.0309C4.4203 9.55777 4.45586 8.99938 4.74281 8.55906C4.75871 8.53364 4.77658 8.50951 4.79625 8.48687L6.75 6.17031L4.78125 1.76406C4.78088 1.76032 4.78088 1.75655 4.78125 1.75281C2.90036 1.99817 1.49492 3.60318 1.5 5.5C1.50723 12.1244 6.87558 17.4928 13.5 17.5C15.3955 17.5065 17.0011 16.1045 17.25 14.2253V14.2262Z" fill="black"/>
</svg>
