<svg width="30" height="30" viewBox="0 0 30 30" fill="none" xmlns="http://www.w3.org/2000/svg">
<path fill-rule="evenodd" clip-rule="evenodd" d="M29.5075 20.1689L22.2054 17.0024L22.1853 16.9934C21.4151 16.6746 20.5307 16.7536 19.8339 17.2034C19.7935 17.2292 19.7547 17.2573 19.7176 17.2874L15.9449 20.3999C13.5548 19.2764 11.0872 16.9064 9.92625 14.6234L13.1472 10.9169C13.1782 10.8794 13.2076 10.8419 13.2355 10.8014C13.6902 10.129 13.767 9.28102 13.4401 8.54235V8.52435L10.1588 1.4458C9.7218 0.470041 8.67343 -0.111101 7.58264 0.0177918C3.23781 0.571082 -0.00784151 4.15891 1.42298e-05 8.39985C1.42298e-05 20.3099 10.0131 30 22.3201 30C26.7024 30.0076 30.4098 26.8666 30.9815 22.6619C31.115 21.6067 30.5152 20.5923 29.5075 20.1689ZM22.3201 27.6C11.3677 27.5884 2.49198 18.999 2.48002 8.39985C2.46796 5.36972 4.78139 2.80154 7.88489 2.39981C7.88428 2.40579 7.88428 2.41182 7.88489 2.41781L11.1399 9.46785L7.93605 13.1789C7.90353 13.2151 7.87399 13.2537 7.84769 13.2944C7.37327 13.9989 7.31447 14.8923 7.69269 15.6494C9.097 18.4289 11.9909 21.2084 14.894 22.5659C15.6822 22.9286 16.6093 22.8636 17.3353 22.3949C17.3751 22.369 17.4134 22.3409 17.45 22.3109L21.218 19.1999L28.5031 22.3574C28.5031 22.3574 28.5155 22.3574 28.5201 22.3574C28.11 25.3653 25.4551 27.6102 22.3201 27.6Z" fill="black"/>
</svg>
