<svg width="30" height="30" viewBox="0 0 30 30" fill="none" xmlns="http://www.w3.org/2000/svg">
<path d="M25.6066 4.39336C22.7735 1.56023 19.0066 0 15 0C10.9934 0 7.22654 1.56023 4.39336 4.39336C1.56018 7.22648 0 10.9934 0 15C0 19.0066 1.56023 22.7735 4.39336 25.6066C7.22648 28.4398 10.9934 30 15 30C19.0066 30 22.7735 28.4398 25.6066 25.6066C28.4398 22.7735 30 19.0066 30 15C30 10.9934 28.4398 7.22654 25.6066 4.39336ZM25.4817 22.8902C24.5846 22.2831 23.6456 21.7585 22.672 21.3205C23.1021 19.6437 23.3574 17.8232 23.4211 15.9375H28.0911C27.9069 18.5353 26.9636 20.9266 25.4817 22.8902ZM1.90887 15.9375H6.57891C6.64266 17.8232 6.89801 19.6438 7.32797 21.3205C6.35438 21.7585 5.41535 22.283 4.51828 22.8902C3.03645 20.9266 2.09309 18.5353 1.90887 15.9375ZM4.51805 7.11012C5.41512 7.71727 6.35414 8.24186 7.32785 8.67984C6.89789 10.3565 6.6426 12.1769 6.57885 14.0625H1.90887C2.09309 11.4648 3.03639 9.07371 4.51805 7.11012ZM21.1305 4.61514C20.787 3.97107 20.4158 3.38988 20.021 2.87414C21.6071 3.53332 23.037 4.49473 24.2384 5.68647C23.5573 6.134 22.8496 6.5284 22.12 6.86918C21.8337 6.06855 21.5031 5.31369 21.1305 4.61514ZM20.3708 7.5685C18.6592 8.14225 16.8529 8.4375 15 8.4375C13.1471 8.4375 11.3408 8.14225 9.62918 7.5685C10.8282 4.15523 12.8092 1.875 15 1.875C17.1908 1.875 19.1718 4.15523 20.3708 7.5685ZM8.45525 14.0625C8.51713 12.4018 8.74148 10.8152 9.09609 9.3682C10.9791 9.99187 12.9643 10.3125 15 10.3125C17.0357 10.3125 19.0209 9.99187 20.9039 9.3682C21.2586 10.8152 21.4829 12.4018 21.5447 14.0625H8.45525ZM21.5447 15.9375C21.4828 17.5983 21.2585 19.185 20.9038 20.632C19.0207 20.0082 17.0355 19.6875 15 19.6875C12.9645 19.6875 10.9793 20.0082 9.09615 20.632C8.74148 19.185 8.51713 17.5983 8.45525 15.9375H21.5447ZM8.86951 4.61514C8.49697 5.31369 8.16639 6.06855 7.88004 6.86912C7.15043 6.5284 6.44273 6.13394 5.76158 5.68641C6.96293 4.49461 8.39285 3.53326 9.97898 2.87408C9.58424 3.38988 9.21299 3.97107 8.86951 4.61514ZM7.8801 23.1312C8.16639 23.9317 8.49697 24.6864 8.86945 25.3849C9.21299 26.0289 9.58418 26.6101 9.97893 27.1259C8.39297 26.4667 6.96316 25.5054 5.76188 24.3138C6.44303 23.8663 7.15061 23.472 7.8801 23.1312ZM9.6293 22.4317C11.341 21.8579 13.1473 21.5625 15 21.5625C16.8527 21.5625 18.659 21.8579 20.3707 22.4317C19.1717 25.8449 17.1907 28.125 15 28.125C12.8093 28.125 10.8283 25.8449 9.6293 22.4317ZM21.1305 25.3849C21.503 24.6864 21.8336 23.9317 22.1198 23.1312C22.8494 23.472 23.557 23.8664 24.2381 24.3138C23.0368 25.5054 21.607 26.4667 20.021 27.1259C20.4158 26.6101 20.787 26.0289 21.1305 25.3849ZM23.4211 14.0625C23.3573 12.177 23.1021 10.3565 22.6721 8.67984C23.6458 8.24186 24.5849 7.71727 25.4819 7.11012C26.9636 9.07365 27.9069 11.4647 28.0911 14.0625H23.4211Z" fill="black"/>
</svg>
