<svg width="30" height="30" viewBox="0 0 30 25" fill="none" xmlns="http://www.w3.org/2000/svg">
<path fill-rule="evenodd" clip-rule="evenodd" d="M25.5375 0H4.4625C3.27917 0.000662371 2.14451 0.47103 1.30777 1.30777C0.47103 2.1445 0.000662371 3.27917 0 4.4625L0 15.5375C0.000662371 16.7208 0.47103 17.8555 1.30777 18.6922C2.14451 19.529 3.27917 19.9993 4.4625 20H6.25V23.75C6.25 24.8125 6.9225 25.76 7.925 26.1125C8.41359 26.2815 8.94248 26.2953 9.43924 26.1521C9.936 26.0089 10.3764 25.7157 10.7 25.3125L14.95 20H25.5375C26.7208 19.9993 27.8555 19.529 28.6922 18.6922C29.529 17.8555 29.9993 16.7208 30 15.5375V4.4625C29.9993 3.27917 29.529 2.1445 28.6922 1.30777C27.8555 0.47103 26.7208 0.000662371 25.5375 0ZM27.5 15.5375C27.497 16.0571 27.2893 16.5545 26.9219 16.9219C26.5545 17.2893 26.0571 17.497 25.5375 17.5H13.75L8.75 23.75V17.5H4.4625C3.94292 17.497 3.44547 17.2893 3.07807 16.9219C2.71066 16.5545 2.50295 16.0571 2.5 15.5375V4.4625C2.50295 3.94292 2.71066 3.44547 3.07807 3.07807C3.44547 2.71066 3.94292 2.50295 4.4625 2.5H25.5375C26.0571 2.50295 26.5545 2.71066 26.9219 3.07807C27.2893 3.44547 27.497 3.94292 27.5 4.4625V15.5375Z" fill="black"/>
</svg>
